<svg xmlns="http://www.w3.org/2000/svg" xmlns:xlink="http://www.w3.org/1999/xlink" width="500" zoomAndPan="magnify" viewBox="0 0 375 374.999991" height="500" preserveAspectRatio="xMidYMid meet" version="1.0"><rect x="-37.5" width="450" fill="#ffffff" y="-37.499999" height="449.999989" fill-opacity="1"/><rect x="-37.5" width="450" fill="#ffffff" y="-37.499999" height="449.999989" fill-opacity="1"/><path fill="#f97e2b" d="M 61.945312 111.164062 C 56.59375 131.195312 52.578125 151.59375 49.996094 172.171875 C 47.34375 170.75 44.386719 169.007812 41.382812 167.050781 C 0 140.136719 18.691406 115.542969 61.945312 111.164062 Z M 61.945312 111.164062 " fill-opacity="1" fill-rule="nonzero"/><path fill="#4f2020" d="M 61.945312 111.164062 C 56.59375 131.195312 52.578125 151.59375 49.996094 172.171875 C 47.34375 170.75 44.386719 169.007812 41.382812 167.050781 C 31.296875 160.347656 20.125 151.140625 18.335938 139.5625 C 32.476562 152.199219 47.84375 121.878906 54.988281 112.28125 C 57.40625 111.832031 59.757812 111.46875 61.945312 111.164062 Z M 61.945312 111.164062 " fill-opacity="0.212" fill-rule="nonzero"/><path fill="#4f2020" d="M 184.269531 304.085938 C 181.664062 304.085938 178.769531 303.710938 175.558594 302.957031 C 168.949219 301.410156 161.941406 298.53125 155.75 295.988281 C 153.667969 295.136719 151.695312 294.320312 149.847656 293.605469 C 148.957031 293.261719 148.351562 292.421875 148.300781 291.476562 C 148.082031 287.800781 149.542969 284.105469 152.292969 281.34375 C 155.128906 278.507812 158.925781 277 162.746094 277.207031 C 164.082031 277.28125 165.117188 278.425781 165.042969 279.773438 C 164.972656 281.113281 163.816406 282.144531 162.476562 282.074219 C 160.054688 281.941406 157.597656 282.925781 155.75 284.785156 C 154.359375 286.183594 153.484375 287.910156 153.230469 289.699219 C 154.628906 290.257812 156.089844 290.855469 157.609375 291.476562 C 169.339844 296.292969 183.941406 302.289062 191.449219 297.410156 C 194.953125 295.136719 196.839844 290.332031 197.035156 283.144531 C 197.070312 281.828125 198.152344 280.785156 199.46875 280.785156 C 199.492188 280.785156 199.515625 280.785156 199.539062 280.785156 C 200.878906 280.820312 201.9375 281.941406 201.902344 283.289062 C 201.765625 287.777344 201.035156 291.597656 199.722656 294.613281 C 198.421875 297.59375 196.535156 299.914062 194.089844 301.496094 C 191.4375 303.238281 188.1875 304.085938 184.269531 304.085938 Z M 184.269531 304.085938 " fill-opacity="1" fill-rule="nonzero"/><path fill="#ffffff" d="M 61.945312 111.164062 C 61.300781 113.570312 60.679688 115.96875 60.074219 118.386719 C 43.585938 120.796875 24.710938 125.453125 19.042969 142.75 C 12.300781 120.992188 43.730469 113.597656 61.945312 111.164062 Z M 61.945312 111.164062 " fill-opacity="0.6" fill-rule="nonzero"/><path fill="#4f2020" d="M 50.035156 174.605469 C 49.644531 174.605469 49.265625 174.507812 48.914062 174.324219 C 37.453125 168.363281 28.800781 161.785156 23.167969 154.765625 C 17.582031 147.796875 15.308594 140.621094 16.574219 134.015625 C 17.824219 127.472656 22.523438 121.734375 30.152344 117.414062 C 37.964844 112.988281 48.585938 110.070312 61.738281 108.742188 C 62.53125 108.65625 63.320312 108.972656 63.832031 109.582031 C 64.355469 110.191406 64.539062 111.015625 64.332031 111.785156 C 59.015625 131.644531 55.011719 152.066406 52.441406 172.464844 C 52.347656 173.253906 51.859375 173.945312 51.152344 174.3125 C 50.8125 174.507812 50.421875 174.605469 50.035156 174.605469 Z M 58.722656 113.984375 C 47.867188 115.371094 39.070312 117.949219 32.550781 121.648438 C 26.199219 125.246094 22.328125 129.84375 21.355469 134.941406 C 20.367188 140.109375 22.304688 145.914062 26.964844 151.738281 C 31.585938 157.515625 38.851562 163.21875 48.074219 168.363281 C 50.519531 150.085938 54.097656 131.828125 58.722656 113.984375 Z M 58.722656 113.984375 " fill-opacity="1" fill-rule="nonzero"/><path fill="#4f2020" d="M 354.09375 188.652344 C 333.8125 255.046875 266.695312 291.304688 202.738281 307.613281 C 197.824219 308.015625 192.882812 307.40625 188.199219 305.800781 C 147.363281 292 106.199219 275.296875 77.535156 243.203125 C 77.535156 243.203125 77.535156 243.1875 77.519531 243.1875 C 60.097656 224.324219 46.882812 201.277344 42.515625 175.867188 C 42.003906 172.949219 41.625 169.996094 41.359375 167.050781 C 39.703125 148.722656 42.503906 129.832031 50.472656 113.183594 C 78.226562 54.933594 164.289062 45.691406 199.796875 106.457031 C 199.796875 106.445312 199.808594 106.433594 199.808594 106.433594 C 227.34375 58.351562 291.761719 52.257812 330.394531 87.691406 C 357.699219 112.648438 364.4375 154.160156 354.09375 188.652344 Z M 354.09375 188.652344 " fill-opacity="1" fill-rule="nonzero"/><path fill="#4f2020" d="M 196.910156 310.046875 C 196.703125 310.046875 196.5 310.023438 196.292969 309.960938 C 171.917969 303.539062 149.96875 295.367188 131.058594 285.6875 C 120.351562 280.199219 110.386719 274.105469 101.457031 267.585938 C 91.867188 260.582031 83.191406 252.894531 75.671875 244.710938 C 59.027344 227.449219 46.917969 205.289062 41.589844 182.304688 C 38.804688 170.324219 37.902344 158.378906 38.886719 146.8125 C 39.933594 134.566406 43.109375 122.902344 48.320312 112.148438 C 51.96875 104.121094 56.761719 96.847656 62.578125 90.511719 C 68.089844 84.503906 74.527344 79.332031 81.695312 75.148438 C 95.296875 67.207031 111.152344 63.011719 127.554688 63.011719 C 138.894531 63.011719 150.285156 65.101562 160.503906 69.054688 C 171.273438 73.226562 180.617188 79.296875 188.261719 87.09375 C 202.242188 101.347656 209.542969 120.527344 209.394531 142.617188 C 216.648438 147.929688 221.515625 155.484375 223.511719 164.519531 C 225.273438 172.511719 224.800781 181.414062 222.125 190.367188 C 236.992188 199.367188 252.054688 209.292969 266.914062 219.859375 C 281.503906 230.234375 296.371094 241.582031 311.09375 253.5625 C 311.640625 254.015625 311.96875 254.683594 311.996094 255.386719 C 312.007812 256.09375 311.714844 256.773438 311.191406 257.261719 C 298.71875 268.488281 279.261719 280.757812 257.800781 290.929688 C 234.996094 301.726562 213.449219 308.515625 197.128906 310.023438 C 197.070312 310.035156 196.984375 310.046875 196.910156 310.046875 Z M 127.554688 67.875 C 94.375 67.875 65.707031 85.621094 52.746094 114.179688 C 52.734375 114.203125 52.734375 114.214844 52.722656 114.242188 C 33.789062 153.296875 44.679688 205.570312 79.199219 241.351562 C 79.210938 241.363281 79.226562 241.378906 79.238281 241.402344 C 105.46875 269.945312 145.125 291.390625 197.105469 305.15625 C 230.582031 301.898438 280.929688 276.78125 305.777344 255.546875 C 276.476562 231.855469 246.945312 211.007812 217.960938 193.566406 C 216.988281 192.980469 216.550781 191.789062 216.902344 190.71875 C 221.757812 176.101562 221.332031 156.640625 205.5625 145.886719 C 204.882812 145.425781 204.480469 144.648438 204.503906 143.832031 C 204.917969 122.535156 198.105469 104.097656 184.78125 90.523438 C 170.679688 76.121094 149.824219 67.875 127.554688 67.875 Z M 127.554688 67.875 " fill-opacity="1" fill-rule="nonzero"/><path fill="#ffffff" d="M 309.523438 255.460938 C 284.667969 277.828125 231.164062 304.429688 196.910156 307.613281 C 152.863281 296.035156 108.28125 276.550781 77.546875 243.1875 C 77.535156 243.1875 77.535156 243.175781 77.535156 243.175781 L 77.535156 243.164062 C 73.105469 236.414062 71.472656 227.171875 70.925781 218.523438 C 54.21875 210.53125 44.753906 193.636719 42.527344 175.84375 C 42.378906 175.042969 42.222656 174.03125 42.113281 173.230469 C 39.144531 152.980469 41.636719 131.707031 50.484375 113.171875 C 85.929688 37.519531 208.691406 54.375 206.914062 143.867188 C 222.523438 154.511719 225.042969 173.875 219.191406 191.472656 C 250.828125 210.507812 280.871094 232.144531 309.523438 255.460938 Z M 309.523438 255.460938 " fill-opacity="1" fill-rule="nonzero"/><path fill="#8c8c8c" d="M 158.195312 121.769531 C 150.125 130.015625 137.546875 133.261719 126.214844 131.683594 C 120.960938 121.914062 104.496094 97.859375 116.371094 89.453125 C 127.75 82.714844 141.914062 81.097656 153.8125 82.714844 C 166.566406 92.09375 170.019531 110.070312 158.195312 121.769531 Z M 158.195312 121.769531 " fill-opacity="1" fill-rule="nonzero"/><path fill="#f97e2b" d="M 280.089844 232.5 C 271.027344 254.234375 242.746094 277.246094 219.75 261.226562 C 209.359375 253.320312 209.957031 241.0625 215.710938 230.578125 C 220.25 219.449219 212.011719 213.730469 201.378906 213.453125 C 208.691406 207.273438 215.015625 200.023438 220.140625 192.007812 C 240.742188 204.476562 260.671875 218.023438 280.089844 232.5 Z M 280.089844 232.5 " fill-opacity="1" fill-rule="nonzero"/><path fill="#f97e2b" d="M 199.417969 283.230469 C 198.53125 314.230469 168.609375 298.285156 150.6875 291.339844 C 150.320312 284.90625 156.199219 279.289062 162.5625 279.652344 C 167.34375 279.859375 171.40625 282.972656 175.8125 284.835938 C 183.34375 288.03125 192.300781 287.328125 199.417969 283.230469 Z M 199.417969 283.230469 " fill-opacity="1" fill-rule="nonzero"/><path fill="#4f2020" d="M 226.503906 185.636719 C 226.503906 185.636719 226.457031 185.78125 226.371094 186.035156 C 226.273438 186.304688 226.140625 186.695312 225.957031 187.179688 C 225.90625 187.300781 225.859375 187.4375 225.808594 187.570312 C 225.785156 187.640625 225.761719 187.703125 225.738281 187.777344 C 225.726562 187.8125 225.714844 187.847656 225.699219 187.886719 C 225.6875 187.921875 225.664062 187.957031 225.652344 187.996094 C 225.519531 188.300781 225.382812 188.628906 225.226562 188.980469 C 225.066406 189.332031 224.910156 189.710938 224.726562 190.097656 C 224.542969 190.488281 224.351562 190.878906 224.144531 191.304688 C 224.035156 191.511719 223.9375 191.730469 223.828125 191.9375 C 223.71875 192.15625 223.609375 192.375 223.484375 192.59375 C 223.242188 193.03125 222.988281 193.480469 222.730469 193.941406 C 222.597656 194.171875 222.464844 194.40625 222.332031 194.648438 C 222.183594 194.878906 222.039062 195.109375 221.890625 195.351562 C 221.746094 195.585938 221.589844 195.828125 221.441406 196.070312 C 221.285156 196.3125 221.136719 196.558594 220.980469 196.800781 C 220.324219 197.761719 219.652344 198.757812 218.886719 199.707031 C 218.167969 200.691406 217.339844 201.628906 216.550781 202.578125 C 216.136719 203.039062 215.710938 203.492188 215.296875 203.941406 C 214.882812 204.402344 214.445312 204.828125 214.019531 205.253906 C 213.167969 206.128906 212.28125 206.921875 211.414062 207.699219 C 210.976562 208.074219 210.539062 208.441406 210.113281 208.792969 C 209.894531 208.976562 209.6875 209.144531 209.480469 209.316406 C 209.273438 209.488281 209.054688 209.644531 208.835938 209.804688 C 208.410156 210.117188 208.007812 210.433594 207.605469 210.726562 C 207.414062 210.875 207.207031 211.007812 207.011719 211.152344 C 206.816406 211.285156 206.621094 211.421875 206.425781 211.554688 C 206.039062 211.808594 205.683594 212.066406 205.332031 212.285156 C 204.980469 212.503906 204.636719 212.710938 204.308594 212.902344 C 203.992188 213.097656 203.6875 213.28125 203.410156 213.4375 C 203.128906 213.597656 202.863281 213.730469 202.628906 213.863281 C 202.15625 214.121094 201.777344 214.304688 201.535156 214.4375 C 201.28125 214.570312 201.144531 214.632812 201.144531 214.632812 C 200.683594 214.863281 200.113281 214.679688 199.878906 214.21875 C 199.6875 213.839844 199.769531 213.390625 200.0625 213.109375 L 200.085938 213.085938 C 200.085938 213.085938 200.195312 212.976562 200.390625 212.792969 C 200.597656 212.601562 200.890625 212.320312 201.269531 211.96875 C 201.449219 211.785156 201.667969 211.601562 201.886719 211.382812 C 202.109375 211.164062 202.351562 210.933594 202.605469 210.679688 C 202.863281 210.421875 203.140625 210.167969 203.421875 209.886719 C 203.703125 209.609375 203.992188 209.304688 204.308594 208.988281 C 204.613281 208.671875 204.941406 208.367188 205.269531 208.015625 C 205.585938 207.660156 205.929688 207.320312 206.269531 206.957031 C 206.4375 206.773438 206.609375 206.589844 206.792969 206.410156 C 206.960938 206.214844 207.132812 206.019531 207.304688 205.824219 C 207.644531 205.4375 208.007812 205.046875 208.363281 204.632812 C 208.714844 204.21875 209.066406 203.792969 209.433594 203.378906 C 209.796875 202.96875 210.136719 202.515625 210.503906 202.078125 C 210.855469 201.640625 211.222656 201.203125 211.5625 200.742188 C 211.914062 200.292969 212.253906 199.828125 212.609375 199.378906 C 213.277344 198.441406 213.957031 197.53125 214.578125 196.59375 C 214.738281 196.363281 214.894531 196.132812 215.054688 195.902344 C 215.210938 195.667969 215.371094 195.4375 215.515625 195.207031 C 215.820312 194.746094 216.113281 194.28125 216.40625 193.84375 C 216.695312 193.394531 216.953125 192.933594 217.230469 192.507812 C 217.367188 192.289062 217.5 192.070312 217.632812 191.863281 C 217.765625 191.644531 217.875 191.425781 218.011719 191.21875 C 218.253906 190.792969 218.496094 190.378906 218.730469 189.988281 C 218.960938 189.589844 219.167969 189.199219 219.375 188.820312 C 219.582031 188.445312 219.773438 188.09375 219.96875 187.75 C 220.152344 187.410156 220.308594 187.09375 220.46875 186.789062 C 220.625 186.488281 220.773438 186.207031 220.917969 185.953125 C 220.929688 185.914062 220.957031 185.890625 220.96875 185.855469 C 220.980469 185.816406 221.003906 185.78125 221.015625 185.757812 C 221.054688 185.683594 221.078125 185.625 221.113281 185.5625 C 221.175781 185.429688 221.234375 185.308594 221.296875 185.199219 C 221.527344 184.734375 221.722656 184.371094 221.84375 184.113281 C 221.976562 183.871094 222.039062 183.738281 222.039062 183.738281 C 222.671875 182.546875 224.144531 182.097656 225.335938 182.714844 C 226.40625 183.25 226.894531 184.515625 226.503906 185.636719 Z M 226.503906 185.636719 " fill-opacity="1" fill-rule="nonzero"/><path fill="#ffa86e" d="M 156.175781 115.992188 C 147.632812 110.128906 138.714844 104.800781 129.488281 100.082031 C 127.140625 98.40625 123.953125 99.339844 123.394531 102.332031 C 124.292969 122.28125 140.78125 129.199219 156.175781 115.992188 Z M 156.175781 115.992188 " fill-opacity="1" fill-rule="nonzero"/><path fill="#4f2020" d="M 301.578125 249.0625 C 276.015625 228.738281 249.378906 209.765625 221.480469 192.847656 C 220.917969 191.679688 220.347656 190.523438 219.800781 189.355469 C 225.03125 172.148438 221.796875 154.085938 206.925781 143.855469 C 206.9375 136.742188 206.109375 129.515625 204.492188 122.425781 C 204.746094 138.566406 207.070312 154.695312 211.222656 170.285156 C 202.898438 152.03125 202.460938 132.15625 201.65625 112.488281 C 198.164062 100.144531 187.371094 89.464844 179.039062 82.386719 C 185.546875 90.695312 191.035156 99.863281 195.378906 109.65625 C 180.253906 145.085938 224.726562 175.40625 193.46875 212.257812 C 187.714844 219.800781 176.894531 225.347656 168.269531 229.3125 C 140.832031 241.886719 74.285156 259.621094 76 214.472656 C 58.722656 208.648438 48.027344 187.460938 42.113281 173.21875 C 42.222656 174.019531 42.394531 175.03125 42.527344 175.832031 C 46.324219 201.214844 60.460938 224.277344 77.535156 243.152344 L 77.535156 243.164062 C 77.535156 243.175781 77.535156 243.175781 77.546875 243.175781 C 108.269531 276.539062 152.875 296.035156 196.910156 307.601562 C 231.042969 304.464844 284.691406 277.828125 309.523438 255.460938 C 306.882812 253.308594 304.230469 251.179688 301.578125 249.0625 Z M 262.203125 270.480469 C 248.382812 279.324219 228.644531 289.117188 212.28125 282.984375 C 199.648438 275.421875 204.699219 256.882812 196.351562 246.328125 C 197.859375 263.148438 191.8125 285.941406 170.570312 282.242188 C 160.96875 280.019531 149.796875 276.792969 141.257812 270.894531 C 134.941406 266.53125 136.363281 256.773438 143.664062 254.425781 C 159.3125 249.441406 173.757812 240.648438 185.28125 228.945312 C 183.34375 229.46875 181.445312 230.027344 179.523438 230.613281 C 195.742188 223 209.785156 210.679688 219.75 195.71875 C 230.871094 217.757812 237.199219 245.160156 261.144531 256.933594 C 266.5 259.644531 267.109375 267.039062 262.203125 270.480469 Z M 262.203125 270.480469 " fill-opacity="0.2" fill-rule="nonzero"/><path fill="#ffffff" d="M 359.402344 162.40625 C 356.90625 190.9375 344.03125 218.230469 324.992188 239.492188 C 319.382812 246.242188 310.449219 248.175781 301.371094 248.90625 C 275.992188 251.011719 248.371094 238.371094 239.621094 213.550781 C 234.949219 207.441406 229.167969 201.714844 224.875 194.890625 C 207.363281 168.753906 195.316406 134.785156 201.730469 103.539062 C 221.683594 74.847656 252.894531 59.179688 286.210938 65.90625 L 286.222656 65.90625 C 331.171875 72.171875 363.074219 117.707031 359.402344 162.40625 Z M 359.402344 162.40625 " fill-opacity="1" fill-rule="nonzero"/><path fill="#4f2020" d="M 359.402344 162.40625 C 354.058594 207.6875 326.269531 266.613281 272.621094 245.21875 C 257.738281 240.222656 244.34375 227.695312 239.378906 212.84375 C 215.417969 188.664062 188.429688 132.300781 204.480469 99.765625 C 198.261719 128.445312 219.179688 150.703125 241.507812 123.410156 C 251.230469 110.46875 256.011719 93.417969 269.019531 83.785156 C 275.699219 78.933594 285.6875 75.148438 286.796875 65.90625 C 294.195312 69.90625 292.453125 83.664062 288.523438 89.515625 C 275.078125 110.796875 271.851562 121.878906 263.847656 150.742188 C 258.542969 169.886719 237.820312 174.992188 228.449219 160.566406 C 206.9375 163.804688 226.867188 206.152344 256.496094 182.777344 C 232.5625 222.402344 324.5625 259.523438 326.546875 210.449219 C 356.796875 206.335938 363.597656 131.449219 345.042969 105.445312 C 355.445312 121.625 360.875 142.445312 359.402344 162.40625 Z M 359.402344 162.40625 " fill-opacity="0.2" fill-rule="nonzero"/><path fill="#b55040" d="M 291.140625 75.234375 C 287.378906 87.628906 273.679688 84.574219 265.816406 112.148438 C 263.09375 121.722656 260.402344 131.28125 257.019531 140.644531 C 245.242188 173.21875 207.71875 159.839844 202.421875 142.90625 C 199.976562 131.011719 199.273438 118.949219 200.734375 107.285156 C 219.53125 71.003906 258.128906 60.152344 286.199219 65.90625 C 289.242188 68.21875 291.566406 71.390625 291.140625 75.234375 Z M 291.140625 75.234375 " fill-opacity="1" fill-rule="nonzero"/><path fill="#4f2020" d="M 196.910156 310.035156 C 196.703125 310.035156 196.5 310.011719 196.292969 309.949219 C 171.917969 303.515625 149.96875 295.355469 131.070312 285.671875 C 120.363281 280.1875 110.398438 274.09375 101.46875 267.574219 C 91.878906 260.570312 83.203125 252.882812 75.683594 244.699219 C 59.039062 227.4375 46.929688 205.277344 41.601562 182.289062 C 38.816406 170.3125 37.914062 158.367188 38.902344 146.800781 C 39.945312 134.539062 43.121094 122.875 48.332031 112.113281 C 55.617188 96.824219 67.203125 84.101562 81.851562 75.332031 C 95.820312 66.976562 111.847656 62.550781 128.1875 62.550781 C 142.714844 62.550781 156.929688 66.148438 169.304688 72.949219 C 175.824219 76.535156 181.859375 81.011719 187.238281 86.265625 C 191.933594 90.851562 196.15625 96.046875 199.832031 101.761719 C 203.347656 96.203125 207.460938 91.121094 212.074219 86.605469 C 217.414062 81.378906 223.449219 76.890625 230.019531 73.277344 C 242.675781 66.296875 257.191406 62.609375 271.988281 62.609375 C 293.535156 62.609375 314.28125 70.332031 330.367188 84.34375 C 344.226562 96.3125 353.9375 112.976562 358.425781 132.535156 C 360.519531 141.632812 361.421875 151.117188 361.117188 160.714844 C 360.8125 170.214844 359.328125 179.566406 356.710938 188.519531 C 356.710938 188.53125 356.710938 188.542969 356.699219 188.542969 C 351.675781 205 343.484375 220.554688 332.351562 234.785156 C 322.035156 247.980469 309.207031 260.035156 294.230469 270.589844 C 280.199219 280.480469 264.492188 288.945312 247.53125 295.730469 C 231.324219 302.226562 214.433594 307.019531 197.324219 310 C 197.191406 310.023438 197.058594 310.035156 196.910156 310.035156 Z M 128.1875 67.414062 C 95.894531 67.414062 66.277344 85.792969 52.722656 114.214844 C 52.722656 114.214844 52.722656 114.226562 52.710938 114.226562 C 33.789062 153.28125 44.679688 205.558594 79.199219 241.339844 C 79.210938 241.351562 79.226562 241.363281 79.238281 241.390625 C 105.445312 269.910156 145.078125 291.351562 197.007812 305.121094 C 255.136719 294.878906 330.394531 257.90625 352.027344 187.144531 C 362.867188 150.035156 352.878906 110.203125 327.167969 88.019531 C 311.945312 74.761719 292.355469 67.476562 271.976562 67.476562 C 242.492188 67.476562 216.320312 82.496094 201.949219 107.660156 C 201.523438 108.414062 200.71875 108.890625 199.84375 108.890625 C 199.84375 108.890625 199.832031 108.890625 199.832031 108.890625 C 198.96875 108.890625 198.164062 108.425781 197.726562 107.683594 C 182.796875 82.082031 157.453125 67.414062 128.1875 67.414062 Z M 128.1875 67.414062 " fill-opacity="1" fill-rule="nonzero"/><path fill="#f97e2b" d="M 158.230469 121.769531 C 150.164062 130.015625 137.582031 133.261719 126.253906 131.683594 C 121.214844 122.707031 104.472656 97.042969 116.410156 89.453125 C 127.847656 82.726562 141.644531 81.097656 153.835938 82.714844 C 166.675781 92.3125 170.070312 109.875 158.230469 121.769531 Z M 158.230469 121.769531 " fill-opacity="1" fill-rule="nonzero"/><path fill="#ffffff" d="M 133.296875 86.933594 C 133.628906 87.871094 131.386719 89.527344 128.296875 90.621094 C 125.546875 91.605469 123.039062 91.824219 122.285156 91.203125 C 118.453125 93.660156 115.8125 96.882812 115.65625 101.25 C 116.117188 106.117188 116.738281 110.96875 117.542969 115.785156 C 114.765625 107.941406 107.429688 95.558594 116.421875 89.453125 C 127.164062 83.078125 140.40625 81.304688 151.855469 82.472656 C 147.277344 83.578125 139.964844 84.660156 133.105469 86.65625 C 133.199219 86.742188 133.261719 86.839844 133.296875 86.933594 Z M 133.296875 86.933594 " fill-opacity="0.6" fill-rule="nonzero"/><path fill="#4f2020" d="M 158.230469 121.769531 C 150.164062 130.015625 137.582031 133.261719 126.253906 131.683594 C 120.402344 122.195312 114.984375 112.34375 112.660156 101.421875 C 124.34375 119.785156 152.839844 120.734375 165.628906 103.085938 C 165.894531 109.886719 163.011719 116.832031 158.230469 121.769531 Z M 158.230469 121.769531 " fill-opacity="0.2" fill-rule="nonzero"/><path fill="#b55040" d="M 260.316406 168.085938 C 260.902344 134.296875 311.179688 134.296875 311.75 168.085938 C 311.179688 201.886719 260.890625 201.871094 260.316406 168.085938 Z M 260.316406 168.085938 " fill-opacity="1" fill-rule="nonzero"/><path fill="#4f2020" d="M 126.472656 134.308594 L 125.621094 133.042969 L 124.757812 131.777344 L 123.027344 129.238281 C 122.457031 128.386719 121.886719 127.523438 121.324219 126.660156 C 120.765625 125.796875 120.207031 124.917969 119.660156 124.042969 C 119.109375 123.167969 118.574219 122.28125 118.050781 121.378906 C 117.515625 120.480469 117.003906 119.578125 116.507812 118.667969 C 115.996094 117.753906 115.507812 116.832031 115.035156 115.894531 C 114.558594 114.957031 114.097656 114.007812 113.660156 113.046875 C 113.222656 112.085938 112.808594 111.113281 112.40625 110.117188 C 112.015625 109.121094 111.652344 108.121094 111.324219 107.089844 C 110.996094 106.054688 110.703125 105.007812 110.449219 103.9375 C 110.203125 102.867188 109.996094 101.761719 109.886719 100.628906 C 109.765625 99.5 109.730469 98.34375 109.800781 97.152344 C 109.816406 96.859375 109.851562 96.554688 109.886719 96.253906 C 109.925781 95.949219 109.972656 95.65625 110.019531 95.351562 C 110.144531 94.742188 110.277344 94.148438 110.484375 93.539062 C 110.53125 93.394531 110.582031 93.234375 110.640625 93.089844 L 110.824219 92.640625 L 110.910156 92.421875 L 111.007812 92.203125 L 111.214844 91.765625 C 111.285156 91.617188 111.371094 91.484375 111.445312 91.339844 C 111.53125 91.203125 111.601562 91.058594 111.6875 90.925781 C 111.871094 90.65625 112.042969 90.378906 112.234375 90.121094 C 113.015625 89.074219 113.976562 88.1875 115.011719 87.46875 L 115.058594 87.433594 C 115.09375 87.410156 115.132812 87.386719 115.167969 87.359375 L 116.300781 86.730469 L 117.445312 86.121094 C 117.832031 85.925781 118.210938 85.742188 118.601562 85.550781 C 118.988281 85.367188 119.378906 85.195312 119.769531 85.015625 C 120.15625 84.84375 120.558594 84.671875 120.949219 84.503906 C 121.351562 84.332031 121.738281 84.1875 122.140625 84.027344 C 122.542969 83.871094 122.945312 83.738281 123.34375 83.589844 C 123.746094 83.445312 124.160156 83.3125 124.5625 83.175781 C 125.378906 82.910156 126.191406 82.667969 127.019531 82.433594 C 127.847656 82.203125 128.675781 82.007812 129.503906 81.816406 C 130.328125 81.632812 131.167969 81.460938 131.996094 81.316406 C 132.835938 81.171875 133.675781 81.035156 134.515625 80.925781 C 135.355469 80.816406 136.195312 80.71875 137.035156 80.648438 C 137.460938 80.609375 137.875 80.574219 138.300781 80.550781 C 138.726562 80.511719 139.140625 80.5 139.566406 80.476562 C 139.992188 80.453125 140.40625 80.441406 140.832031 80.429688 C 141.257812 80.417969 141.671875 80.417969 142.097656 80.402344 C 142.523438 80.390625 142.933594 80.402344 143.359375 80.417969 C 143.789062 80.417969 144.199219 80.441406 144.625 80.453125 C 145.464844 80.476562 146.304688 80.539062 147.144531 80.597656 C 147.984375 80.660156 148.8125 80.757812 149.652344 80.855469 C 150.480469 80.964844 151.320312 81.074219 152.144531 81.207031 C 152.558594 81.28125 152.972656 81.351562 153.386719 81.425781 C 153.800781 81.5 154.203125 81.597656 154.617188 81.679688 C 155.210938 81.804688 155.589844 82.386719 155.46875 82.984375 C 155.359375 83.53125 154.859375 83.894531 154.324219 83.859375 L 154.300781 83.859375 L 153.09375 83.785156 C 152.695312 83.761719 152.292969 83.738281 151.890625 83.722656 L 150.6875 83.6875 C 150.285156 83.675781 149.882812 83.664062 149.480469 83.664062 C 148.679688 83.652344 147.875 83.664062 147.074219 83.675781 C 146.269531 83.6875 145.464844 83.722656 144.675781 83.761719 C 143.871094 83.796875 143.082031 83.859375 142.277344 83.929688 C 141.875 83.96875 141.488281 84.003906 141.085938 84.039062 C 140.683594 84.089844 140.296875 84.125 139.894531 84.175781 C 139.101562 84.273438 138.3125 84.382812 137.53125 84.503906 C 137.144531 84.5625 136.742188 84.625 136.351562 84.699219 C 135.964844 84.769531 135.574219 84.832031 135.183594 84.917969 C 134.40625 85.0625 133.628906 85.234375 132.859375 85.414062 C 132.09375 85.597656 131.328125 85.792969 130.5625 86 C 129.792969 86.207031 129.039062 86.4375 128.296875 86.679688 C 127.542969 86.921875 126.800781 87.179688 126.070312 87.445312 C 125.707031 87.59375 125.339844 87.714844 124.976562 87.871094 C 124.609375 88.019531 124.246094 88.164062 123.894531 88.308594 C 123.527344 88.46875 123.175781 88.613281 122.808594 88.773438 C 122.457031 88.941406 122.105469 89.101562 121.75 89.257812 C 121.398438 89.429688 121.046875 89.597656 120.703125 89.769531 L 119.671875 90.304688 L 118.648438 90.863281 L 117.636719 91.449219 L 117.796875 91.351562 C 117.152344 91.8125 116.617188 92.347656 116.167969 92.957031 C 116.042969 93.101562 115.960938 93.273438 115.851562 93.417969 C 115.800781 93.492188 115.753906 93.589844 115.714844 93.660156 C 115.667969 93.746094 115.617188 93.820312 115.582031 93.90625 L 115.460938 94.160156 L 115.398438 94.292969 L 115.351562 94.425781 L 115.242188 94.695312 C 115.203125 94.78125 115.179688 94.878906 115.144531 94.976562 C 115.023438 95.351562 114.9375 95.742188 114.851562 96.144531 C 114.816406 96.347656 114.792969 96.554688 114.753906 96.761719 C 114.742188 96.96875 114.707031 97.1875 114.695312 97.394531 C 114.632812 98.246094 114.65625 99.148438 114.753906 100.058594 C 114.839844 100.972656 114.984375 101.894531 115.191406 102.820312 C 115.386719 103.746094 115.628906 104.679688 115.898438 105.605469 C 116.167969 106.53125 116.484375 107.464844 116.8125 108.390625 C 117.140625 109.316406 117.492188 110.238281 117.871094 111.164062 C 118.246094 112.085938 118.636719 113 119.039062 113.914062 C 119.453125 114.824219 119.863281 115.738281 120.292969 116.648438 C 120.71875 117.5625 121.167969 118.460938 121.617188 119.375 C 122.066406 120.285156 122.53125 121.183594 122.992188 122.085938 C 123.917969 123.898438 124.867188 125.699219 125.816406 127.511719 C 126.289062 128.421875 126.765625 129.335938 127.226562 130.246094 C 127.457031 130.707031 127.6875 131.171875 127.921875 131.632812 C 128.152344 132.09375 128.382812 132.582031 128.589844 133.042969 C 128.871094 133.652344 128.589844 134.371094 127.980469 134.648438 C 127.433594 134.976562 126.800781 134.796875 126.472656 134.308594 Z M 126.472656 134.308594 " fill-opacity="1" fill-rule="nonzero"/><path fill="#f08484" d="M 156.210938 116.003906 C 129.625 138.042969 117.238281 100.289062 126.546875 99.21875 C 137.167969 102.785156 146.707031 110.019531 156.210938 116.003906 Z M 156.210938 116.003906 " fill-opacity="1" fill-rule="nonzero"/><path fill="#4f2020" d="M 140.378906 125.199219 C 135.097656 125.199219 130.292969 122.996094 126.847656 118.996094 C 123.332031 114.933594 121.324219 109.207031 121.019531 102.429688 C 121.007812 102.25 121.019531 102.054688 121.058594 101.871094 C 121.617188 98.84375 124.027344 96.8125 127.042969 96.8125 C 128.371094 96.8125 129.660156 97.214844 130.792969 97.980469 C 140.027344 102.722656 149.042969 108.097656 157.597656 113.972656 C 158.21875 114.398438 158.609375 115.09375 158.644531 115.847656 C 158.679688 116.601562 158.375 117.328125 157.804688 117.816406 C 152.183594 122.65625 146.160156 125.199219 140.378906 125.199219 Z M 125.886719 102.550781 C 126.472656 113.363281 132.140625 120.335938 140.378906 120.335938 C 144.164062 120.335938 148.15625 118.886719 152.085938 116.136719 C 144.480469 111.078125 136.546875 106.40625 128.429688 102.25 C 128.320312 102.199219 128.222656 102.140625 128.128906 102.066406 C 127.6875 101.761719 127.300781 101.6875 127.042969 101.6875 C 126.628906 101.6875 126.105469 101.847656 125.886719 102.550781 Z M 125.886719 102.550781 " fill-opacity="1" fill-rule="nonzero"/><path fill="#4f2020" d="M 294.828125 251.570312 C 294.535156 251.570312 294.242188 251.519531 293.949219 251.398438 C 292.695312 250.914062 292.078125 249.5 292.5625 248.25 C 293.355469 246.21875 294.097656 244.296875 295.144531 241.132812 C 295.570312 239.855469 296.945312 239.175781 298.222656 239.601562 C 299.5 240.027344 300.179688 241.402344 299.753906 242.679688 C 298.746094 245.71875 298.039062 247.554688 297.089844 250 C 296.722656 250.984375 295.800781 251.570312 294.828125 251.570312 Z M 294.828125 251.570312 " fill-opacity="1" fill-rule="nonzero"/><path fill="#4f2020" d="M 110.824219 239.308594 C 110.082031 239.308594 109.328125 239.238281 108.597656 239.089844 C 105.992188 238.554688 103.730469 237.082031 102.234375 234.941406 C 101.46875 233.835938 101.734375 232.328125 102.84375 231.5625 C 103.949219 230.796875 105.457031 231.0625 106.226562 232.167969 C 107.964844 234.675781 111.300781 234.90625 113.550781 233.847656 C 114.558594 233.375 116.800781 231.9375 115.921875 228.765625 C 115.605469 227.621094 116.152344 226.417969 117.226562 225.917969 C 118.296875 225.40625 119.574219 225.746094 120.253906 226.722656 C 123.089844 230.746094 127.714844 231.246094 131.097656 230.371094 C 134.480469 229.492188 138.289062 226.804688 138.785156 221.90625 C 138.921875 220.566406 140.125 219.59375 141.449219 219.738281 C 142.789062 219.875 143.761719 221.078125 143.617188 222.402344 C 143.289062 225.566406 141.972656 228.4375 139.796875 230.734375 C 137.8125 232.828125 135.222656 234.335938 132.3125 235.089844 C 129.40625 235.84375 126.410156 235.792969 123.660156 234.929688 C 122.480469 234.566406 121.375 234.054688 120.351562 233.421875 C 119.523438 235.476562 117.894531 237.191406 115.605469 238.261719 C 114.121094 238.945312 112.480469 239.308594 110.824219 239.308594 Z M 110.824219 239.308594 " fill-opacity="1" fill-rule="nonzero"/><path fill="#4f2020" d="M 185.632812 228.230469 C 184.476562 229.070312 183.257812 229.90625 182.042969 230.699219 C 180.824219 231.488281 179.585938 232.253906 178.34375 232.996094 C 175.847656 234.480469 173.292969 235.867188 170.703125 237.167969 C 168.109375 238.480469 165.480469 239.710938 162.816406 240.867188 C 162.148438 241.15625 161.480469 241.4375 160.808594 241.71875 C 160.140625 241.996094 159.472656 242.277344 158.800781 242.542969 C 157.453125 243.078125 156.101562 243.601562 154.738281 244.113281 C 152.011719 245.125 149.273438 246.070312 146.5 246.960938 C 143.726562 247.847656 140.941406 248.664062 138.128906 249.417969 C 135.316406 250.160156 132.472656 250.839844 129.613281 251.421875 C 126.753906 252.019531 123.867188 252.507812 120.960938 252.90625 C 118.050781 253.308594 115.121094 253.578125 112.164062 253.734375 L 111.054688 253.78125 C 110.691406 253.796875 110.3125 253.808594 109.949219 253.820312 L 108.839844 253.84375 L 107.160156 253.84375 L 105.484375 253.808594 C 104.742188 253.769531 104 253.757812 103.242188 253.699219 C 101.746094 253.613281 100.261719 253.453125 98.765625 253.246094 L 97.648438 253.089844 L 96.527344 252.894531 C 96.148438 252.835938 95.785156 252.75 95.40625 252.675781 C 95.03125 252.601562 94.664062 252.53125 94.289062 252.433594 C 92.804688 252.105469 91.332031 251.679688 89.871094 251.179688 L 89.324219 250.984375 L 89.054688 250.886719 L 88.789062 250.777344 L 87.707031 250.351562 L 86.636719 249.890625 C 86.453125 249.816406 86.28125 249.734375 86.097656 249.648438 L 85.578125 249.390625 L 85.308594 249.257812 L 85.175781 249.199219 L 85.066406 249.148438 L 85.003906 249.113281 L 84.53125 248.855469 L 84.296875 248.734375 L 84.175781 248.675781 L 84.042969 248.601562 L 83.507812 248.296875 C 83.144531 248.089844 82.828125 247.882812 82.484375 247.675781 L 82.230469 247.519531 L 81.988281 247.359375 L 81.5 247.03125 C 80.199219 246.144531 78.957031 245.148438 77.8125 244.039062 C 75.527344 241.828125 73.628906 239.1875 72.253906 236.367188 C 72.082031 236.011719 71.910156 235.660156 71.753906 235.296875 L 71.523438 234.761719 C 71.449219 234.578125 71.363281 234.394531 71.304688 234.226562 C 71.011719 233.496094 70.753906 232.765625 70.523438 232.035156 C 70.050781 230.5625 69.683594 229.070312 69.394531 227.574219 C 69.101562 226.078125 68.894531 224.582031 68.761719 223.085938 C 68.613281 221.589844 68.542969 220.09375 68.515625 218.609375 L 69.855469 220.6875 L 68.296875 219.875 C 67.785156 219.59375 67.277344 219.300781 66.765625 219.011719 C 66.253906 218.71875 65.753906 218.402344 65.257812 218.097656 C 64.757812 217.78125 64.269531 217.453125 63.773438 217.136719 C 63.285156 216.808594 62.808594 216.46875 62.324219 216.128906 C 61.847656 215.785156 61.386719 215.421875 60.910156 215.070312 C 60.449219 214.703125 60 214.328125 59.539062 213.960938 C 59.085938 213.585938 58.648438 213.195312 58.199219 212.808594 C 57.761719 212.417969 57.335938 212.003906 56.898438 211.601562 C 56.472656 211.1875 56.058594 210.777344 55.644531 210.363281 L 54.425781 209.074219 C 54.039062 208.636719 53.648438 208.183594 53.257812 207.746094 C 52.882812 207.285156 52.503906 206.835938 52.140625 206.371094 C 51.785156 205.898438 51.410156 205.4375 51.066406 204.960938 L 50.558594 204.246094 C 50.386719 204 50.214844 203.769531 50.046875 203.515625 L 49.558594 202.785156 L 49.316406 202.421875 C 49.230469 202.296875 49.15625 202.175781 49.085938 202.042969 C 48.453125 201.046875 47.855469 200.035156 47.296875 199.003906 C 47.015625 198.480469 46.738281 197.96875 46.46875 197.445312 C 46.203125 196.921875 45.933594 196.398438 45.703125 195.863281 C 45.457031 195.328125 45.203125 194.804688 44.984375 194.257812 L 44.644531 193.457031 C 44.523438 193.1875 44.425781 192.910156 44.316406 192.640625 L 44 191.828125 C 43.890625 191.558594 43.792969 191.277344 43.695312 191 L 43.390625 190.171875 C 43.292969 189.890625 43.207031 189.613281 43.109375 189.34375 L 42.832031 188.519531 C 42.746094 188.238281 42.660156 187.957031 42.574219 187.679688 L 42.320312 186.839844 C 42.234375 186.558594 42.160156 186.28125 42.089844 186 L 41.855469 185.160156 C 41.785156 184.882812 41.710938 184.601562 41.652344 184.308594 L 41.445312 183.457031 C 41.371094 183.179688 41.320312 182.886719 41.25 182.605469 C 41.128906 182.035156 40.992188 181.476562 40.894531 180.902344 C 40.785156 180.332031 40.664062 179.761719 40.578125 179.1875 C 40.480469 178.617188 40.386719 178.046875 40.300781 177.472656 L 40.179688 176.609375 L 40.117188 176.183594 C 40.128906 176.234375 40.105469 176.074219 40.128906 176.28125 L 40.128906 176.269531 L 40.117188 176.199219 L 40.105469 176.113281 L 40.09375 176.039062 C 40.082031 175.941406 40.082031 175.867188 40.070312 175.808594 L 40.054688 175.566406 L 40.054688 175.550781 C 39.996094 174.214844 41.042969 173.070312 42.394531 173.023438 C 43.730469 172.960938 44.875 174.007812 44.921875 175.359375 L 44.921875 175.371094 L 44.9375 175.550781 C 44.9375 175.550781 44.9375 175.550781 44.9375 175.527344 L 44.921875 175.46875 L 44.921875 175.441406 C 44.921875 175.429688 44.921875 175.441406 44.921875 175.441406 L 44.949219 175.578125 L 45.007812 175.976562 L 45.128906 176.78125 C 45.203125 177.316406 45.300781 177.851562 45.386719 178.386719 C 45.472656 178.921875 45.582031 179.457031 45.679688 179.992188 C 45.773438 180.527344 45.898438 181.050781 46.007812 181.585938 C 46.066406 181.851562 46.117188 182.121094 46.1875 182.375 L 46.382812 183.167969 C 46.445312 183.433594 46.503906 183.691406 46.578125 183.957031 L 46.796875 184.734375 C 46.871094 184.992188 46.929688 185.257812 47.015625 185.515625 L 47.246094 186.292969 C 47.332031 186.546875 47.40625 186.816406 47.480469 187.070312 L 47.734375 187.835938 C 47.820312 188.09375 47.90625 188.347656 47.988281 188.601562 L 48.269531 189.355469 C 48.367188 189.613281 48.453125 189.867188 48.550781 190.113281 L 48.839844 190.867188 C 48.9375 191.121094 49.035156 191.363281 49.144531 191.621094 L 49.460938 192.363281 C 49.667969 192.859375 49.898438 193.347656 50.121094 193.832031 C 50.339844 194.320312 50.582031 194.792969 50.824219 195.28125 C 51.054688 195.765625 51.324219 196.230469 51.578125 196.703125 C 52.089844 197.640625 52.636719 198.5625 53.210938 199.464844 C 53.28125 199.574219 53.34375 199.695312 53.429688 199.804688 L 53.648438 200.132812 L 54.097656 200.800781 C 54.242188 201.019531 54.402344 201.238281 54.558594 201.460938 L 55.023438 202.117188 C 55.339844 202.554688 55.667969 202.96875 55.996094 203.394531 C 56.324219 203.804688 56.675781 204.21875 57.007812 204.632812 C 57.359375 205.035156 57.710938 205.4375 58.066406 205.835938 L 59.160156 207.003906 L 60.292969 208.136719 C 60.679688 208.5 61.070312 208.867188 61.472656 209.21875 C 61.875 209.570312 62.273438 209.925781 62.6875 210.265625 C 63.101562 210.59375 63.515625 210.945312 63.941406 211.273438 C 64.367188 211.589844 64.792969 211.917969 65.21875 212.234375 C 65.65625 212.539062 66.09375 212.855469 66.535156 213.160156 C 66.984375 213.453125 67.421875 213.753906 67.882812 214.035156 C 68.347656 214.316406 68.796875 214.59375 69.257812 214.875 L 70.660156 215.664062 L 72.082031 216.417969 C 72.886719 216.84375 73.371094 217.648438 73.410156 218.5 C 73.566406 221.246094 73.882812 223.972656 74.46875 226.585938 C 74.757812 227.902344 75.113281 229.179688 75.550781 230.429688 C 75.769531 231.050781 76 231.660156 76.253906 232.265625 C 76.316406 232.414062 76.378906 232.570312 76.449219 232.71875 L 76.65625 233.15625 C 76.792969 233.445312 76.949219 233.738281 77.082031 234.03125 C 78.261719 236.328125 79.808594 238.386719 81.671875 240.125 L 81.839844 240.28125 L 82.023438 240.441406 L 82.375 240.757812 C 82.621094 240.964844 82.863281 241.15625 83.117188 241.363281 C 83.375 241.558594 83.628906 241.753906 83.886719 241.949219 C 84.152344 242.132812 84.40625 242.324219 84.675781 242.496094 L 85.078125 242.761719 L 85.285156 242.898438 L 85.492188 243.019531 C 85.769531 243.1875 86.050781 243.359375 86.320312 243.503906 L 86.71875 243.738281 L 86.816406 243.796875 L 86.9375 243.859375 L 87.183594 243.980469 L 87.65625 244.222656 L 88.058594 244.417969 L 88.496094 244.625 C 88.640625 244.699219 88.789062 244.757812 88.945312 244.832031 L 89.847656 245.207031 L 90.773438 245.5625 L 91.003906 245.644531 L 91.234375 245.71875 L 91.707031 245.878906 C 92.960938 246.289062 94.25 246.65625 95.566406 246.933594 C 98.183594 247.519531 100.894531 247.859375 103.621094 248.03125 C 104.300781 248.078125 104.996094 248.089844 105.675781 248.128906 L 106.710938 248.152344 L 107.222656 248.164062 L 107.746094 248.164062 C 109.121094 248.175781 110.507812 248.128906 111.894531 248.066406 C 114.667969 247.921875 117.445312 247.675781 120.207031 247.300781 C 122.980469 246.933594 125.742188 246.472656 128.492188 245.925781 C 131.242188 245.367188 133.992188 244.757812 136.71875 244.050781 C 139.441406 243.359375 142.15625 242.582031 144.859375 241.765625 C 147.558594 240.9375 150.234375 240.050781 152.902344 239.113281 L 154.894531 238.410156 L 156.890625 237.679688 C 158.21875 237.179688 159.542969 236.695312 160.859375 236.171875 C 161.515625 235.914062 162.171875 235.660156 162.84375 235.40625 L 164.8125 234.613281 C 165.46875 234.347656 166.128906 234.089844 166.785156 233.8125 L 167.769531 233.410156 L 168.742188 232.996094 C 171.359375 231.902344 173.949219 230.769531 176.53125 229.601562 C 177.820312 229.019531 179.109375 228.421875 180.386719 227.816406 C 181.675781 227.207031 182.929688 226.597656 184.234375 225.96875 C 184.914062 225.636719 185.730469 225.917969 186.058594 226.597656 C 186.363281 227.132812 186.167969 227.839844 185.632812 228.230469 Z M 185.632812 228.230469 " fill-opacity="1" fill-rule="nonzero"/><path fill="#4f2020" d="M 196.644531 244.367188 L 196.875 245.414062 L 197.117188 246.460938 L 197.617188 248.566406 C 197.957031 249.964844 198.285156 251.375 198.617188 252.785156 C 198.945312 254.195312 199.261719 255.621094 199.550781 257.042969 C 199.84375 258.464844 200.136719 259.902344 200.402344 261.335938 C 200.539062 262.054688 200.660156 262.769531 200.792969 263.5 C 200.914062 264.21875 201.023438 264.949219 201.144531 265.664062 C 201.378906 267.113281 201.558594 268.574219 201.730469 270.03125 C 201.902344 271.492188 202.035156 272.964844 202.132812 274.449219 C 202.242188 275.929688 202.289062 277.414062 202.300781 278.910156 C 202.3125 280.40625 202.277344 281.914062 202.179688 283.421875 C 202.082031 284.929688 201.914062 286.464844 201.644531 287.984375 C 201.378906 289.503906 201.023438 291.039062 200.511719 292.570312 C 200.003906 294.089844 199.371094 295.609375 198.480469 297.046875 C 197.605469 298.480469 196.484375 299.855469 195.125 300.984375 C 193.773438 302.128906 192.167969 302.992188 190.511719 303.550781 C 188.855469 304.113281 187.152344 304.378906 185.5 304.441406 C 183.84375 304.5 182.226562 304.378906 180.65625 304.148438 C 180.582031 304.136719 180.507812 304.125 180.4375 304.101562 L 180.414062 304.101562 L 177.382812 303.320312 L 174.363281 302.507812 C 173.367188 302.226562 172.355469 301.945312 171.359375 301.65625 C 170.363281 301.351562 169.363281 301.058594 168.367188 300.753906 C 167.367188 300.4375 166.371094 300.136719 165.386719 299.820312 C 164.398438 299.492188 163.402344 299.175781 162.417969 298.832031 C 161.429688 298.492188 160.445312 298.152344 159.460938 297.8125 L 156.515625 296.742188 C 155.542969 296.375 154.554688 296 153.582031 295.621094 L 150.675781 294.453125 L 147.777344 293.238281 L 144.90625 291.972656 C 143.957031 291.535156 143.007812 291.085938 142.058594 290.648438 C 141.109375 290.199219 140.171875 289.722656 139.238281 289.273438 C 138.761719 289.042969 138.300781 288.800781 137.835938 288.554688 L 136.4375 287.839844 C 135.976562 287.605469 135.511719 287.351562 135.050781 287.097656 L 133.664062 286.34375 C 131.824219 285.320312 130.011719 284.261719 128.222656 283.15625 C 126.4375 282.050781 124.660156 280.90625 122.929688 279.703125 L 122.273438 279.25 C 122.054688 279.105469 121.847656 278.949219 121.628906 278.789062 L 120.339844 277.863281 C 119.476562 277.257812 118.648438 276.601562 117.808594 275.957031 L 117.175781 275.46875 C 116.96875 275.3125 116.761719 275.140625 116.554688 274.96875 L 115.328125 273.960938 L 114.71875 273.460938 C 114.511719 273.292969 114.316406 273.109375 114.121094 272.9375 L 112.929688 271.894531 L 112.332031 271.371094 C 112.136719 271.199219 111.945312 271.003906 111.75 270.824219 L 110.59375 269.726562 L 110.007812 269.179688 C 109.816406 269 109.632812 268.804688 109.449219 268.621094 L 108.328125 267.492188 L 107.769531 266.917969 L 107.234375 266.335938 L 106.152344 265.15625 C 105.96875 264.960938 105.785156 264.765625 105.617188 264.558594 L 105.09375 263.949219 L 104.058594 262.734375 C 103.707031 262.332031 103.390625 261.90625 103.0625 261.480469 L 102.074219 260.21875 L 101.832031 259.902344 C 101.746094 259.792969 101.675781 259.683594 101.601562 259.574219 L 101.140625 258.914062 L 100.214844 257.601562 C 100.054688 257.382812 99.910156 257.164062 99.765625 256.933594 L 99.324219 256.265625 L 98.460938 254.914062 C 97.914062 254 97.390625 253.066406 96.855469 252.140625 C 96.1875 250.972656 96.574219 249.488281 97.742188 248.820312 C 98.886719 248.164062 100.335938 248.527344 101.03125 249.636719 L 101.101562 249.757812 C 101.625 250.597656 102.136719 251.449219 102.660156 252.285156 L 103.5 253.515625 L 103.914062 254.136719 C 104.046875 254.34375 104.191406 254.550781 104.339844 254.742188 L 105.226562 255.9375 L 105.664062 256.53125 C 105.738281 256.628906 105.8125 256.726562 105.882812 256.824219 L 106.117188 257.117188 L 107.050781 258.269531 C 107.367188 258.660156 107.671875 259.050781 108 259.414062 L 108.988281 260.535156 L 109.472656 261.09375 C 109.644531 261.273438 109.816406 261.457031 109.984375 261.640625 L 111.019531 262.722656 L 111.53125 263.257812 L 113.136719 264.828125 C 113.320312 264.996094 113.488281 265.179688 113.671875 265.351562 L 114.21875 265.859375 L 115.328125 266.871094 C 115.507812 267.039062 115.691406 267.210938 115.886719 267.367188 L 116.457031 267.855469 L 117.601562 268.828125 C 117.796875 268.984375 117.980469 269.15625 118.175781 269.316406 L 118.757812 269.789062 L 119.925781 270.726562 C 120.121094 270.882812 120.316406 271.042969 120.511719 271.1875 L 121.105469 271.636719 L 122.3125 272.539062 C 122.519531 272.683594 122.710938 272.84375 122.917969 272.988281 L 123.527344 273.425781 L 124.757812 274.300781 C 124.964844 274.449219 125.15625 274.59375 125.378906 274.738281 L 126.011719 275.164062 C 127.675781 276.296875 129.367188 277.378906 131.097656 278.425781 C 132.824219 279.46875 134.574219 280.480469 136.339844 281.441406 L 137.679688 282.160156 C 138.128906 282.402344 138.566406 282.644531 139.015625 282.875 L 140.367188 283.570312 C 140.816406 283.800781 141.269531 284.042969 141.71875 284.25 C 142.632812 284.6875 143.53125 285.152344 144.445312 285.578125 C 145.367188 286 146.28125 286.441406 147.207031 286.851562 L 149.992188 288.082031 L 152.804688 289.261719 L 155.625 290.394531 L 158.472656 291.488281 L 161.332031 292.546875 C 162.292969 292.886719 163.253906 293.214844 164.203125 293.554688 C 165.164062 293.882812 166.128906 294.199219 167.101562 294.527344 C 168.0625 294.84375 169.035156 295.148438 170.007812 295.453125 C 170.980469 295.757812 171.957031 296.046875 172.929688 296.339844 C 173.902344 296.632812 174.886719 296.910156 175.863281 297.191406 L 178.804688 298.007812 L 181.761719 298.785156 L 181.519531 298.734375 C 182.808594 298.941406 184.085938 299.050781 185.316406 299.015625 C 186.542969 298.980469 187.738281 298.796875 188.820312 298.445312 C 188.953125 298.394531 189.101562 298.359375 189.222656 298.308594 L 189.609375 298.152344 C 189.878906 298.054688 190.109375 297.910156 190.367188 297.789062 C 190.5 297.726562 190.609375 297.652344 190.730469 297.582031 L 191.082031 297.363281 C 191.191406 297.277344 191.300781 297.191406 191.425781 297.117188 L 191.59375 296.996094 L 191.679688 296.9375 L 191.765625 296.863281 C 192.628906 296.15625 193.382812 295.269531 194.027344 294.261719 C 194.671875 293.25 195.183594 292.09375 195.609375 290.878906 C 196.035156 289.664062 196.351562 288.375 196.59375 287.058594 C 196.839844 285.746094 197.007812 284.382812 197.128906 283.023438 C 197.253906 281.648438 197.3125 280.261719 197.335938 278.875 C 197.375 277.476562 197.351562 276.078125 197.3125 274.667969 C 197.277344 273.253906 197.191406 271.84375 197.105469 270.433594 C 197.019531 269.023438 196.898438 267.601562 196.765625 266.175781 C 196.703125 265.472656 196.632812 264.753906 196.558594 264.046875 C 196.484375 263.34375 196.414062 262.625 196.328125 261.917969 C 196.167969 260.496094 196 259.074219 195.828125 257.652344 L 195.292969 253.355469 C 195.109375 251.921875 194.929688 250.488281 194.757812 249.039062 C 194.671875 248.320312 194.601562 247.59375 194.527344 246.863281 C 194.492188 246.496094 194.453125 246.132812 194.429688 245.769531 C 194.417969 245.585938 194.394531 245.390625 194.378906 245.207031 L 194.34375 244.660156 C 194.308594 244.015625 194.792969 243.46875 195.4375 243.433594 C 196.023438 243.421875 196.523438 243.820312 196.644531 244.367188 Z M 196.644531 244.367188 " fill-opacity="1" fill-rule="nonzero"/><path fill="#ffffff" d="M 359.402344 162.40625 C 358.695312 177.546875 352.527344 194.914062 346.089844 208.332031 C 375 138.492188 327.921875 73.679688 271.769531 71.707031 C 271.792969 71.78125 271.804688 71.867188 271.816406 71.925781 C 272.046875 74.3125 267.667969 76.671875 262.046875 77.21875 C 256.414062 77.765625 251.667969 76.28125 251.421875 73.910156 C 251.421875 73.859375 251.421875 73.8125 251.421875 73.777344 C 234.023438 77.960938 216.503906 88.578125 200.757812 107.222656 C 216.40625 75.695312 253.152344 59.265625 286.199219 65.90625 L 286.210938 65.90625 C 331.171875 72.171875 363.074219 117.707031 359.402344 162.40625 Z M 359.402344 162.40625 " fill-opacity="0.6" fill-rule="nonzero"/><path fill="#4f2020" d="M 171.578125 236.5 C 171.578125 236.5 171.261719 236.984375 170.714844 237.824219 C 170.582031 238.03125 170.421875 238.277344 170.265625 238.519531 C 170.105469 238.761719 169.949219 239.042969 169.765625 239.320312 C 169.582031 239.613281 169.398438 239.917969 169.195312 240.234375 C 169 240.5625 168.792969 240.914062 168.585938 241.28125 C 168.378906 241.644531 168.148438 242.023438 167.929688 242.410156 C 167.710938 242.8125 167.476562 243.226562 167.246094 243.640625 C 167.125 243.847656 167.015625 244.066406 166.894531 244.285156 C 166.785156 244.503906 166.664062 244.722656 166.539062 244.953125 C 166.308594 245.402344 166.066406 245.863281 165.824219 246.328125 C 165.359375 247.277344 164.875 248.25 164.421875 249.257812 C 163.949219 250.253906 163.523438 251.300781 163.074219 252.335938 C 162.660156 253.382812 162.222656 254.425781 161.84375 255.472656 C 161.441406 256.507812 161.101562 257.554688 160.75 258.550781 C 160.578125 259.050781 160.433594 259.546875 160.273438 260.035156 C 160.203125 260.277344 160.117188 260.519531 160.042969 260.753906 C 159.96875 260.996094 159.910156 261.226562 159.835938 261.457031 C 159.703125 261.917969 159.570312 262.382812 159.433594 262.820312 C 159.3125 263.257812 159.203125 263.683594 159.09375 264.097656 C 158.984375 264.511719 158.886719 264.898438 158.789062 265.277344 C 158.703125 265.652344 158.621094 266.007812 158.535156 266.347656 C 158.449219 266.6875 158.375 266.992188 158.316406 267.285156 C 158.242188 267.574219 158.195312 267.84375 158.144531 268.085938 C 157.9375 269.058594 157.816406 269.605469 157.816406 269.605469 L 157.804688 269.644531 C 157.632812 270.433594 156.855469 270.945312 156.050781 270.773438 C 155.285156 270.617188 154.785156 269.875 154.910156 269.097656 C 154.910156 269.097656 155.003906 268.523438 155.164062 267.503906 C 155.199219 267.246094 155.25 266.96875 155.296875 266.664062 C 155.359375 266.359375 155.417969 266.03125 155.480469 265.679688 C 155.542969 265.324219 155.613281 264.949219 155.6875 264.558594 C 155.773438 264.167969 155.859375 263.757812 155.941406 263.332031 C 156.039062 262.90625 156.125 262.453125 156.234375 261.992188 C 156.34375 261.53125 156.453125 261.054688 156.574219 260.570312 C 156.636719 260.328125 156.683594 260.070312 156.757812 259.828125 C 156.820312 259.574219 156.890625 259.328125 156.953125 259.074219 C 157.085938 258.5625 157.21875 258.039062 157.367188 257.503906 C 157.671875 256.445312 157.976562 255.351562 158.328125 254.257812 C 158.667969 253.152344 159.058594 252.042969 159.433594 250.9375 C 159.847656 249.832031 160.238281 248.722656 160.675781 247.652344 C 161.089844 246.570312 161.550781 245.523438 161.976562 244.515625 C 162.195312 244.003906 162.429688 243.519531 162.648438 243.03125 C 162.757812 242.789062 162.867188 242.542969 162.976562 242.3125 C 163.085938 242.082031 163.195312 241.851562 163.304688 241.621094 C 163.523438 241.171875 163.742188 240.71875 163.949219 240.292969 C 164.15625 239.867188 164.375 239.457031 164.582031 239.066406 C 164.789062 238.675781 164.972656 238.300781 165.164062 237.933594 C 165.359375 237.582031 165.542969 237.242188 165.726562 236.914062 C 165.894531 236.597656 166.066406 236.292969 166.210938 236.011719 C 166.359375 235.746094 166.503906 235.503906 166.625 235.285156 C 167.136719 234.40625 167.417969 233.910156 167.417969 233.910156 C 168.085938 232.742188 169.582031 232.351562 170.738281 233.019531 C 171.90625 233.691406 172.296875 235.1875 171.628906 236.339844 C 171.613281 236.425781 171.589844 236.476562 171.578125 236.5 Z M 171.578125 236.5 " fill-opacity="1" fill-rule="nonzero"/><path fill="#4f2020" d="M 110.203125 220.726562 C 107.308594 223.863281 114.449219 227.378906 116.75 228.253906 C 120.328125 229.457031 122.371094 222.742188 123.382812 220.226562 C 123.320312 215.265625 112.757812 218.425781 110.203125 220.726562 Z M 110.203125 220.726562 " fill-opacity="1" fill-rule="nonzero"/><path fill="#4f2020" d="M 296.03125 251.726562 C 283.496094 251.726562 270.890625 248.273438 260.523438 242.007812 C 249.367188 235.257812 241.371094 225.710938 237.371094 214.375 L 236.835938 213.753906 C 232.050781 208.292969 227.113281 202.640625 222.914062 196.289062 C 213.605469 182.644531 206.453125 167.441406 202.242188 152.335938 C 197.605469 135.707031 196.4375 119.433594 198.785156 103.976562 C 198.847656 103.609375 198.980469 103.257812 199.199219 102.953125 C 208.289062 89.914062 218.972656 79.773438 230.96875 72.789062 C 243.296875 65.613281 256.667969 61.976562 270.734375 61.976562 C 275.964844 61.976562 281.332031 62.488281 286.6875 63.511719 C 297.503906 65.515625 307.917969 69.738281 317.628906 76.027344 C 326.996094 82.09375 335.285156 89.792969 342.246094 98.914062 C 349.230469 108.074219 354.484375 118.144531 357.878906 128.859375 C 361.421875 140.027344 362.746094 151.375 361.835938 162.574219 C 361.445312 169.726562 359.609375 178.886719 356.675781 188.347656 C 353.523438 198.503906 349.289062 208.511719 344.433594 217.296875 C 338.863281 227.390625 332.730469 235.441406 326.230469 241.242188 C 318.589844 248.054688 310.632812 251.507812 302.601562 251.507812 C 302.285156 251.507812 301.96875 251.507812 301.652344 251.496094 C 299.789062 251.65625 297.90625 251.726562 296.03125 251.726562 Z M 203.519531 105.265625 C 199.40625 133.53125 207.921875 165.675781 226.953125 193.566406 C 226.964844 193.578125 226.964844 193.589844 226.976562 193.589844 C 230.992188 199.660156 235.824219 205.191406 240.507812 210.542969 L 241.359375 211.519531 C 241.566406 211.761719 241.726562 212.027344 241.835938 212.332031 C 248.769531 232.65625 271.0625 246.851562 296.042969 246.851562 C 297.832031 246.851562 299.632812 246.777344 301.382812 246.617188 C 301.480469 246.605469 301.589844 246.605469 301.6875 246.605469 C 301.992188 246.617188 302.296875 246.617188 302.601562 246.617188 C 320.0625 246.617188 333.640625 226.757812 340.1875 214.921875 C 349.300781 198.441406 356.199219 176.78125 356.992188 162.246094 C 356.992188 162.222656 356.992188 162.199219 356.992188 162.171875 C 360.519531 119.105469 327.921875 76.097656 285.796875 68.253906 C 280.734375 67.292969 275.675781 66.804688 270.746094 66.804688 C 244.828125 66.84375 220.980469 80.476562 203.519531 105.265625 Z M 203.519531 105.265625 " fill-opacity="1" fill-rule="nonzero"/><path fill="#4f2020" d="M 237.527344 215.128906 C 237.527344 215.128906 237.46875 214.972656 237.371094 214.667969 C 237.320312 214.523438 237.261719 214.328125 237.1875 214.109375 C 237.164062 214.058594 237.152344 214 237.125 213.9375 C 237.101562 213.878906 237.089844 213.828125 237.066406 213.742188 C 237.027344 213.597656 236.992188 213.4375 236.945312 213.269531 C 236.90625 213.097656 236.859375 212.917969 236.808594 212.734375 C 236.785156 212.636719 236.761719 212.539062 236.738281 212.441406 C 236.710938 212.34375 236.6875 212.246094 236.675781 212.148438 C 236.601562 211.761719 236.53125 211.335938 236.457031 210.875 C 236.394531 210.410156 236.347656 209.925781 236.300781 209.414062 C 236.273438 209.15625 236.273438 208.890625 236.25 208.621094 C 236.238281 208.355469 236.226562 208.074219 236.214844 207.785156 C 236.214844 207.503906 236.226562 207.210938 236.226562 206.921875 C 236.226562 206.773438 236.238281 206.628906 236.238281 206.46875 C 236.238281 206.398438 236.238281 206.324219 236.25 206.238281 C 236.25 206.167969 236.261719 206.09375 236.261719 206.007812 C 236.3125 205.398438 236.347656 204.765625 236.457031 204.136719 C 236.503906 203.820312 236.542969 203.492188 236.601562 203.160156 C 236.675781 202.832031 236.738281 202.503906 236.808594 202.175781 C 236.871094 201.847656 236.957031 201.507812 237.054688 201.179688 C 237.101562 201.007812 237.136719 200.851562 237.1875 200.679688 C 237.234375 200.511719 237.273438 200.339844 237.332031 200.183594 C 237.441406 199.855469 237.550781 199.511719 237.660156 199.171875 L 237.746094 198.917969 L 237.84375 198.660156 C 237.90625 198.492188 237.976562 198.332031 238.039062 198.164062 C 238.101562 197.992188 238.171875 197.824219 238.234375 197.664062 C 238.292969 197.492188 238.378906 197.335938 238.453125 197.164062 C 238.597656 196.835938 238.757812 196.496094 238.914062 196.167969 C 239.253906 195.523438 239.585938 194.855469 239.972656 194.222656 C 240.339844 193.578125 240.777344 192.96875 241.191406 192.347656 C 241.640625 191.753906 242.078125 191.15625 242.566406 190.597656 C 243.027344 190.027344 243.550781 189.492188 244.050781 188.96875 C 244.585938 188.46875 245.085938 187.945312 245.644531 187.496094 C 245.777344 187.386719 245.910156 187.265625 246.058594 187.15625 L 246.265625 186.984375 L 246.472656 186.828125 C 246.75 186.609375 247.03125 186.402344 247.3125 186.195312 C 247.445312 186.085938 247.589844 186 247.738281 185.902344 C 247.882812 185.804688 248.015625 185.707031 248.164062 185.625 C 248.308594 185.527344 248.441406 185.441406 248.589844 185.34375 C 248.734375 185.246094 248.878906 185.171875 249.027344 185.089844 C 249.320312 184.917969 249.597656 184.761719 249.878906 184.589844 C 250.171875 184.445312 250.449219 184.296875 250.742188 184.152344 C 250.886719 184.078125 251.023438 184.019531 251.167969 183.945312 C 251.300781 183.871094 251.449219 183.824219 251.59375 183.761719 C 251.875 183.640625 252.152344 183.519531 252.433594 183.410156 C 252.566406 183.347656 252.714844 183.300781 252.847656 183.25 C 252.980469 183.203125 253.128906 183.15625 253.261719 183.105469 C 253.527344 183.007812 253.796875 182.910156 254.050781 182.839844 C 254.320312 182.765625 254.574219 182.691406 254.832031 182.621094 C 254.953125 182.582031 255.085938 182.546875 255.207031 182.523438 C 255.269531 182.507812 255.328125 182.484375 255.390625 182.472656 C 255.449219 182.460938 255.511719 182.449219 255.574219 182.4375 C 255.816406 182.386719 256.058594 182.339844 256.289062 182.289062 C 256.398438 182.265625 256.523438 182.242188 256.632812 182.21875 C 256.691406 182.207031 256.742188 182.195312 256.800781 182.179688 C 256.863281 182.167969 256.910156 182.167969 256.972656 182.15625 C 257.410156 182.097656 257.824219 182.046875 258.199219 182 C 258.578125 181.972656 258.929688 181.960938 259.246094 181.9375 C 259.40625 181.925781 259.550781 181.925781 259.699219 181.914062 C 259.84375 181.914062 259.964844 181.914062 260.085938 181.914062 C 260.332031 181.925781 260.539062 181.925781 260.707031 181.925781 C 261.046875 181.9375 261.21875 181.949219 261.21875 181.949219 C 261.765625 181.972656 262.191406 182.425781 262.167969 182.972656 C 262.15625 183.421875 261.828125 183.800781 261.414062 183.894531 L 261.339844 183.921875 C 261.339844 183.921875 261.183594 183.957031 260.878906 184.03125 C 260.730469 184.066406 260.550781 184.101562 260.332031 184.152344 C 260.222656 184.175781 260.113281 184.199219 259.988281 184.238281 C 259.867188 184.273438 259.734375 184.308594 259.601562 184.347656 C 259.332031 184.429688 259.027344 184.503906 258.710938 184.601562 C 258.394531 184.722656 258.054688 184.832031 257.691406 184.964844 C 257.59375 184.992188 257.507812 185.027344 257.410156 185.074219 C 257.3125 185.113281 257.226562 185.148438 257.128906 185.199219 C 256.9375 185.269531 256.742188 185.355469 256.546875 185.441406 C 256.496094 185.464844 256.449219 185.476562 256.398438 185.5 C 256.351562 185.527344 256.304688 185.550781 256.253906 185.574219 C 256.15625 185.625 256.058594 185.671875 255.949219 185.71875 C 255.742188 185.816406 255.535156 185.914062 255.328125 186.023438 C 255.121094 186.132812 254.914062 186.253906 254.695312 186.367188 C 254.585938 186.425781 254.476562 186.488281 254.367188 186.546875 C 254.257812 186.609375 254.148438 186.667969 254.039062 186.730469 C 253.820312 186.863281 253.601562 186.996094 253.382812 187.132812 C 253.273438 187.203125 253.164062 187.265625 253.054688 187.339844 C 252.945312 187.410156 252.835938 187.496094 252.726562 187.570312 C 252.507812 187.726562 252.273438 187.875 252.054688 188.03125 C 251.835938 188.203125 251.617188 188.371094 251.398438 188.542969 C 251.289062 188.628906 251.179688 188.710938 251.070312 188.796875 C 250.960938 188.894531 250.851562 188.980469 250.742188 189.078125 C 250.632812 189.175781 250.523438 189.261719 250.414062 189.355469 C 250.304688 189.453125 250.195312 189.539062 250.085938 189.648438 C 249.222656 190.425781 248.40625 191.304688 247.613281 192.226562 C 247.25 192.714844 246.847656 193.175781 246.507812 193.675781 C 246.128906 194.160156 245.828125 194.695312 245.484375 195.195312 C 245.179688 195.730469 244.851562 196.242188 244.585938 196.789062 C 244.292969 197.324219 244.050781 197.882812 243.78125 198.417969 C 243.308594 199.523438 242.90625 200.632812 242.578125 201.726562 C 242.285156 202.820312 242.019531 203.890625 241.882812 204.914062 C 241.785156 205.425781 241.761719 205.921875 241.703125 206.410156 C 241.6875 206.46875 241.6875 206.53125 241.675781 206.59375 C 241.675781 206.652344 241.675781 206.714844 241.664062 206.773438 C 241.652344 206.894531 241.652344 207.003906 241.640625 207.128906 C 241.628906 207.359375 241.617188 207.589844 241.605469 207.820312 C 241.605469 208.269531 241.59375 208.695312 241.605469 209.109375 C 241.628906 209.523438 241.640625 209.914062 241.664062 210.265625 C 241.703125 210.628906 241.738281 210.96875 241.761719 211.285156 C 241.761719 211.371094 241.773438 211.433594 241.785156 211.503906 C 241.800781 211.578125 241.8125 211.640625 241.824219 211.710938 C 241.847656 211.847656 241.859375 211.980469 241.882812 212.089844 C 241.894531 212.210938 241.921875 212.320312 241.933594 212.429688 C 241.933594 212.480469 241.957031 212.550781 241.96875 212.613281 C 241.980469 212.671875 241.992188 212.734375 242.003906 212.78125 C 242.054688 213.015625 242.089844 213.195312 242.128906 213.355469 C 242.1875 213.671875 242.226562 213.828125 242.226562 213.828125 C 242.492188 215.15625 241.640625 216.429688 240.3125 216.699219 C 239.109375 216.964844 237.917969 216.261719 237.527344 215.128906 Z M 237.527344 215.128906 " fill-opacity="1" fill-rule="nonzero"/><path fill="#4f2020" d="M 274.699219 165.835938 C 274.699219 165.835938 274.761719 165.945312 274.871094 166.152344 C 274.933594 166.25 274.992188 166.382812 275.078125 166.527344 C 275.113281 166.601562 275.164062 166.6875 275.199219 166.757812 C 275.25 166.832031 275.296875 166.90625 275.34375 166.988281 C 275.441406 167.148438 275.550781 167.320312 275.660156 167.511719 C 275.796875 167.707031 275.929688 167.925781 276.074219 168.144531 C 276.222656 168.363281 276.390625 168.59375 276.574219 168.839844 C 276.746094 169.082031 276.953125 169.324219 277.144531 169.582031 C 277.242188 169.703125 277.367188 169.835938 277.460938 169.957031 C 277.570312 170.078125 277.683594 170.226562 277.804688 170.347656 C 277.925781 170.46875 278.046875 170.601562 278.167969 170.734375 C 278.230469 170.796875 278.289062 170.871094 278.351562 170.929688 C 278.410156 170.992188 278.484375 171.066406 278.546875 171.125 C 278.679688 171.257812 278.800781 171.394531 278.945312 171.527344 C 279.09375 171.648438 279.226562 171.78125 279.375 171.917969 C 279.445312 171.976562 279.519531 172.050781 279.59375 172.109375 C 279.664062 172.171875 279.738281 172.230469 279.824219 172.304688 C 279.980469 172.425781 280.128906 172.5625 280.285156 172.683594 C 280.917969 173.179688 281.601562 173.65625 282.304688 174.117188 C 282.671875 174.324219 283.023438 174.554688 283.402344 174.75 C 283.765625 174.96875 284.167969 175.140625 284.542969 175.332031 C 284.933594 175.503906 285.324219 175.6875 285.726562 175.832031 C 286.113281 176.003906 286.527344 176.125 286.917969 176.269531 C 287.320312 176.378906 287.71875 176.527344 288.121094 176.621094 C 288.523438 176.734375 288.925781 176.804688 289.3125 176.902344 C 290.105469 177.046875 290.882812 177.183594 291.613281 177.21875 C 291.992188 177.269531 292.34375 177.253906 292.695312 177.28125 C 293.050781 177.292969 293.390625 177.28125 293.71875 177.28125 C 294.046875 177.269531 294.363281 177.253906 294.667969 177.230469 C 294.972656 177.207031 295.253906 177.183594 295.519531 177.15625 C 295.789062 177.121094 296.042969 177.085938 296.273438 177.0625 C 296.503906 177.023438 296.722656 176.988281 296.917969 176.953125 C 297.308594 176.890625 297.613281 176.816406 297.832031 176.78125 C 298.050781 176.746094 298.160156 176.71875 298.160156 176.71875 L 298.269531 176.695312 C 298.988281 176.5625 299.667969 177.035156 299.804688 177.742188 C 299.898438 178.277344 299.65625 178.800781 299.230469 179.078125 C 299.230469 179.078125 299.121094 179.152344 298.902344 179.285156 C 298.792969 179.359375 298.660156 179.433594 298.511719 179.53125 C 298.441406 179.578125 298.355469 179.628906 298.257812 179.6875 C 298.160156 179.738281 298.0625 179.785156 297.964844 179.847656 C 297.757812 179.957031 297.527344 180.078125 297.261719 180.199219 C 297.003906 180.308594 296.710938 180.429688 296.40625 180.5625 C 296.25 180.636719 296.089844 180.683594 295.921875 180.734375 C 295.75 180.792969 295.582031 180.84375 295.398438 180.902344 C 295.214844 180.964844 295.03125 181.015625 294.851562 181.0625 C 294.65625 181.109375 294.460938 181.160156 294.265625 181.21875 C 294.070312 181.269531 293.863281 181.304688 293.644531 181.34375 C 293.4375 181.378906 293.21875 181.425781 293 181.464844 C 292.78125 181.5 292.5625 181.523438 292.332031 181.550781 C 292.222656 181.5625 292.101562 181.574219 291.992188 181.585938 C 291.871094 181.597656 291.761719 181.597656 291.636719 181.609375 C 291.40625 181.621094 291.164062 181.644531 290.921875 181.660156 C 290.675781 181.660156 290.433594 181.660156 290.179688 181.660156 C 290.054688 181.660156 289.921875 181.660156 289.800781 181.660156 C 289.679688 181.660156 289.546875 181.644531 289.421875 181.632812 C 289.167969 181.621094 288.914062 181.609375 288.65625 181.585938 C 288.402344 181.5625 288.144531 181.523438 287.878906 181.5 C 287.609375 181.476562 287.355469 181.414062 287.101562 181.367188 C 286.578125 181.28125 286.054688 181.148438 285.519531 181.027344 C 284.996094 180.867188 284.472656 180.734375 283.949219 180.527344 C 283.425781 180.34375 282.925781 180.125 282.414062 179.90625 C 281.917969 179.664062 281.417969 179.421875 280.941406 179.152344 C 280.457031 178.898438 280.003906 178.582031 279.542969 178.289062 C 279.105469 177.972656 278.65625 177.667969 278.253906 177.316406 C 277.839844 176.988281 277.449219 176.621094 277.074219 176.269531 C 276.332031 175.539062 275.660156 174.796875 275.101562 174.03125 C 275.027344 173.933594 274.957031 173.835938 274.894531 173.753906 C 274.824219 173.65625 274.761719 173.558594 274.699219 173.460938 C 274.578125 173.265625 274.445312 173.082031 274.324219 172.890625 C 274.203125 172.707031 274.105469 172.511719 273.996094 172.316406 C 273.886719 172.136719 273.777344 171.953125 273.691406 171.769531 C 273.605469 171.585938 273.507812 171.40625 273.421875 171.222656 C 273.335938 171.039062 273.253906 170.882812 273.179688 170.699219 C 273.105469 170.53125 273.046875 170.359375 272.972656 170.1875 C 272.910156 170.019531 272.839844 169.871094 272.789062 169.703125 C 272.691406 169.386719 272.59375 169.09375 272.511719 168.816406 C 272.4375 168.535156 272.363281 168.253906 272.316406 168.023438 C 272.292969 167.902344 272.265625 167.792969 272.242188 167.683594 C 272.21875 167.574219 272.21875 167.5 272.207031 167.414062 C 272.183594 167.246094 272.15625 167.113281 272.144531 166.988281 C 272.121094 166.757812 272.109375 166.636719 272.109375 166.636719 C 272.023438 165.859375 272.570312 165.164062 273.351562 165.070312 C 273.886719 165.054688 274.433594 165.347656 274.699219 165.835938 Z M 274.699219 165.835938 " fill-opacity="1" fill-rule="nonzero"/><path fill="#4f2020" d="M 231.054688 163 C 224.460938 163 217.597656 160.980469 211.746094 157.320312 C 205.867188 153.636719 201.753906 148.78125 200.148438 143.636719 C 200.125 143.566406 200.101562 143.480469 200.085938 143.40625 C 197.265625 129.710938 196.828125 116.453125 198.773438 103.976562 C 198.835938 103.609375 198.96875 103.257812 199.1875 102.953125 C 208.8125 89.160156 220.175781 78.640625 232.988281 71.671875 C 244.828125 65.226562 257.582031 61.953125 270.867188 61.953125 C 276.125 61.953125 281.441406 62.476562 286.699219 63.511719 C 287.0625 63.582031 287.402344 63.730469 287.695312 63.960938 C 291.992188 67.207031 294.085938 71.304688 293.597656 75.515625 C 293.585938 75.660156 293.546875 75.792969 293.511719 75.941406 C 291.796875 81.609375 288.230469 84.492188 284.460938 87.53125 C 278.960938 91.972656 272.71875 97.007812 268.203125 112.816406 L 267.765625 114.339844 C 265.222656 123.289062 262.59375 132.535156 259.355469 141.472656 C 256.714844 148.78125 252.675781 154.367188 247.371094 158.0625 C 242.710938 161.296875 237.078125 163 231.054688 163 Z M 204.832031 142.300781 C 206.097656 146.242188 209.554688 150.207031 214.335938 153.199219 C 219.421875 156.382812 225.359375 158.136719 231.054688 158.136719 C 237.441406 158.136719 249.015625 155.75 254.769531 139.820312 C 257.945312 131.039062 260.550781 121.867188 263.082031 113 L 263.519531 111.480469 C 265.695312 103.828125 268.519531 97.75 272.144531 92.894531 C 275.320312 88.652344 278.546875 86.035156 281.40625 83.738281 C 284.921875 80.902344 287.488281 78.835938 288.789062 74.75 C 289.023438 71.839844 286.820312 69.496094 285.203125 68.179688 C 280.445312 67.28125 275.625 66.820312 270.878906 66.820312 C 244.914062 66.820312 221.003906 80.476562 203.519531 105.277344 C 201.753906 116.976562 202.203125 129.417969 204.832031 142.300781 Z M 204.832031 142.300781 " fill-opacity="1" fill-rule="nonzero"/><path fill="#4f2020" d="M 339.152344 216.445312 C 337.742188 216.445312 336.609375 216.003906 335.820312 215.566406 C 331.230469 213.027344 329.371094 205.535156 330.515625 200.121094 C 330.792969 198.808594 332.085938 197.96875 333.398438 198.25 C 334.710938 198.527344 335.550781 199.816406 335.273438 201.128906 C 334.457031 205.011719 335.894531 210.058594 338.167969 211.3125 C 339.273438 211.929688 340.722656 211.394531 342.449219 209.730469 C 343.414062 208.792969 344.957031 208.828125 345.894531 209.789062 C 346.832031 210.761719 346.796875 212.296875 345.832031 213.234375 C 343.277344 215.703125 340.992188 216.445312 339.152344 216.445312 Z M 339.152344 216.445312 " fill-opacity="1" fill-rule="nonzero"/><path fill="#4f2020" d="M 324.527344 242.300781 C 324.078125 242.300781 323.628906 242.179688 323.226562 241.925781 C 322.09375 241.207031 321.753906 239.699219 322.472656 238.566406 C 326.074219 232.863281 325.878906 229.507812 325.597656 224.847656 C 325.269531 219.289062 324.855469 212.367188 330.394531 199.660156 C 330.929688 198.429688 332.363281 197.859375 333.59375 198.394531 C 334.820312 198.929688 335.394531 200.363281 334.859375 201.59375 C 329.796875 213.246094 330.148438 219.253906 330.464844 224.554688 C 330.757812 229.480469 331.039062 234.128906 326.585938 241.15625 C 326.121094 241.898438 325.332031 242.300781 324.527344 242.300781 Z M 324.527344 242.300781 " fill-opacity="1" fill-rule="nonzero"/><path fill="#4f2020" d="M 296.1875 212.550781 C 301.273438 216.164062 303.914062 219.242188 317.847656 224.96875 C 330.050781 229.980469 307.46875 251.449219 292.1875 244.078125 C 277.5 237.21875 282.5 204.195312 296.1875 212.550781 Z M 296.1875 212.550781 " fill-opacity="1" fill-rule="nonzero"/><path fill="#4f2020" d="M 253.941406 206.058594 C 253.882812 201.859375 260.464844 201.859375 260.402344 206.058594 C 260.464844 210.242188 253.882812 210.242188 253.941406 206.058594 Z M 253.941406 206.058594 " fill-opacity="1" fill-rule="nonzero"/><path fill="#4f2020" d="M 263.847656 213.5 C 263.785156 209.304688 270.367188 209.304688 270.308594 213.5 C 270.367188 217.683594 263.785156 217.683594 263.847656 213.5 Z M 263.847656 213.5 " fill-opacity="1" fill-rule="nonzero"/><path fill="#4f2020" d="M 254.804688 219.082031 C 254.769531 216.019531 259.574219 216.019531 259.527344 219.082031 C 259.574219 222.148438 254.769531 222.148438 254.804688 219.082031 Z M 254.804688 219.082031 " fill-opacity="1" fill-rule="nonzero"/><path fill="#4f2020" d="M 156.210938 116.003906 C 150.503906 120.273438 145.101562 123.421875 138.203125 122.828125 C 133.941406 116.902344 132.8125 109.351562 133.53125 102.199219 C 141.339844 106.371094 148.910156 110.980469 156.210938 116.003906 Z M 156.210938 116.003906 " fill-opacity="0.2" fill-rule="nonzero"/><path fill="#4f2020" d="M 291.140625 75.234375 C 287.378906 87.628906 273.679688 84.574219 265.816406 112.148438 C 263.09375 121.722656 260.402344 131.28125 257.019531 140.644531 C 245.242188 173.21875 207.71875 159.839844 202.421875 142.90625 C 199.976562 131.011719 199.273438 118.949219 200.734375 107.285156 C 201.425781 143.164062 239.449219 150.960938 251.265625 115.285156 C 265.234375 74.664062 277.402344 92.203125 290.652344 71.5 C 291.101562 72.679688 291.285156 73.933594 291.140625 75.234375 Z M 291.140625 75.234375 " fill-opacity="0.2" fill-rule="nonzero"/><path fill="#4f2020" d="M 155.285156 178.253906 C 155.285156 178.253906 155.296875 178.398438 155.320312 178.667969 C 155.335938 178.800781 155.347656 178.96875 155.359375 179.164062 C 155.359375 179.261719 155.371094 179.359375 155.371094 179.480469 C 155.371094 179.601562 155.359375 179.738281 155.359375 179.882812 C 155.347656 180.164062 155.335938 180.492188 155.320312 180.832031 C 155.296875 181.160156 155.25 181.511719 155.210938 181.902344 C 155.199219 182.097656 155.152344 182.289062 155.117188 182.484375 C 155.078125 182.691406 155.042969 182.898438 155.003906 183.105469 C 154.992188 183.15625 154.980469 183.214844 154.980469 183.265625 C 154.96875 183.3125 154.957031 183.375 154.945312 183.421875 C 154.921875 183.53125 154.894531 183.640625 154.859375 183.75 C 154.800781 183.96875 154.75 184.199219 154.691406 184.429688 C 154.628906 184.664062 154.542969 184.894531 154.46875 185.125 C 154.386719 185.355469 154.324219 185.597656 154.226562 185.84375 C 154.128906 186.085938 154.03125 186.316406 153.933594 186.570312 C 153.886719 186.695312 153.835938 186.816406 153.777344 186.949219 C 153.714844 187.070312 153.667969 187.191406 153.605469 187.3125 C 153.496094 187.558594 153.363281 187.8125 153.242188 188.066406 C 153.109375 188.3125 152.972656 188.566406 152.828125 188.808594 C 152.753906 188.929688 152.695312 189.066406 152.609375 189.1875 C 152.535156 189.308594 152.449219 189.429688 152.378906 189.550781 C 152.21875 189.796875 152.0625 190.050781 151.890625 190.292969 C 151.210938 191.277344 150.417969 192.226562 149.554688 193.140625 C 148.679688 194.027344 147.707031 194.867188 146.683594 195.632812 C 145.648438 196.375 144.554688 197.042969 143.433594 197.605469 C 142.863281 197.871094 142.300781 198.140625 141.730469 198.359375 C 141.4375 198.46875 141.160156 198.589844 140.878906 198.6875 C 140.585938 198.785156 140.308594 198.867188 140.015625 198.964844 C 139.734375 199.050781 139.441406 199.125 139.164062 199.195312 C 139.015625 199.234375 138.882812 199.269531 138.738281 199.304688 C 138.589844 199.34375 138.457031 199.367188 138.3125 199.390625 C 138.03125 199.453125 137.75 199.5 137.472656 199.5625 C 137.191406 199.609375 136.925781 199.648438 136.644531 199.683594 C 136.511719 199.695312 136.375 199.71875 136.242188 199.730469 C 136.109375 199.746094 135.976562 199.757812 135.839844 199.769531 C 135.574219 199.792969 135.316406 199.804688 135.0625 199.828125 C 134.808594 199.839844 134.550781 199.839844 134.308594 199.839844 C 134.066406 199.839844 133.820312 199.855469 133.578125 199.839844 C 133.347656 199.828125 133.105469 199.816406 132.882812 199.804688 C 132.652344 199.792969 132.433594 199.792969 132.226562 199.757812 C 132.007812 199.730469 131.800781 199.707031 131.605469 199.683594 C 131.398438 199.660156 131.207031 199.632812 131.023438 199.597656 C 130.644531 199.523438 130.292969 199.453125 129.976562 199.390625 C 129.660156 199.320312 129.367188 199.234375 129.101562 199.160156 C 128.964844 199.125 128.84375 199.085938 128.734375 199.050781 C 128.625 199.015625 128.515625 198.976562 128.417969 198.941406 C 128.222656 198.867188 128.054688 198.808594 127.921875 198.757812 C 127.652344 198.648438 127.507812 198.601562 127.507812 198.601562 C 126.726562 198.296875 126.351562 197.421875 126.65625 196.644531 C 126.886719 196.058594 127.445312 195.695312 128.03125 195.683594 L 128.164062 195.683594 C 128.164062 195.683594 128.296875 195.683594 128.554688 195.667969 C 128.675781 195.667969 128.832031 195.667969 129.003906 195.667969 C 129.089844 195.667969 129.1875 195.667969 129.296875 195.667969 C 129.390625 195.667969 129.503906 195.65625 129.625 195.65625 C 129.855469 195.644531 130.097656 195.644531 130.378906 195.632812 C 130.644531 195.609375 130.9375 195.585938 131.253906 195.558594 C 131.570312 195.523438 131.898438 195.488281 132.238281 195.449219 C 132.582031 195.402344 132.945312 195.339844 133.3125 195.28125 C 133.675781 195.195312 134.066406 195.132812 134.464844 195.039062 C 134.855469 194.929688 135.269531 194.855469 135.671875 194.707031 C 135.878906 194.648438 136.085938 194.585938 136.292969 194.527344 C 136.5 194.453125 136.707031 194.378906 136.925781 194.308594 C 137.035156 194.269531 137.132812 194.234375 137.242188 194.199219 C 137.351562 194.148438 137.449219 194.113281 137.558594 194.078125 C 137.765625 193.992188 137.984375 193.917969 138.203125 193.820312 C 139.054688 193.457031 139.917969 193.03125 140.757812 192.554688 C 141.597656 192.070312 142.425781 191.523438 143.214844 190.949219 C 144.007812 190.355469 144.75 189.722656 145.464844 189.054688 C 146.160156 188.382812 146.816406 187.679688 147.414062 186.972656 C 147.558594 186.804688 147.691406 186.609375 147.839844 186.4375 C 147.910156 186.351562 147.984375 186.253906 148.046875 186.171875 C 148.105469 186.085938 148.179688 185.988281 148.242188 185.902344 C 148.375 185.71875 148.507812 185.550781 148.628906 185.367188 C 148.75 185.183594 148.859375 185.003906 148.984375 184.832031 C 149.042969 184.746094 149.105469 184.664062 149.164062 184.566406 C 149.226562 184.480469 149.273438 184.382812 149.324219 184.296875 C 149.433594 184.113281 149.53125 183.945312 149.640625 183.773438 C 149.75 183.605469 149.835938 183.421875 149.933594 183.25 C 150.027344 183.082031 150.125 182.910156 150.210938 182.742188 C 150.371094 182.398438 150.539062 182.082031 150.6875 181.769531 C 150.820312 181.453125 150.964844 181.148438 151.085938 180.867188 C 151.199219 180.574219 151.308594 180.308594 151.402344 180.054688 C 151.5 179.808594 151.5625 179.589844 151.648438 179.382812 C 151.683594 179.285156 151.71875 179.1875 151.757812 179.09375 C 151.792969 178.996094 151.816406 178.886719 151.84375 178.800781 C 151.890625 178.617188 151.941406 178.460938 151.988281 178.324219 C 152.074219 178.070312 152.109375 177.9375 152.109375 177.9375 C 152.378906 177.085938 153.289062 176.609375 154.140625 176.878906 C 154.800781 177.046875 155.238281 177.621094 155.285156 178.253906 Z M 155.285156 178.253906 " fill-opacity="1" fill-rule="nonzero"/><path fill="#4f2020" d="M 92.949219 210.398438 C 92.949219 210.398438 92.925781 210.496094 92.878906 210.691406 C 92.851562 210.789062 92.816406 210.910156 92.78125 211.042969 C 92.753906 211.117188 92.742188 211.1875 92.707031 211.273438 C 92.671875 211.359375 92.632812 211.457031 92.597656 211.554688 C 92.523438 211.75 92.425781 211.980469 92.328125 212.210938 C 92.21875 212.429688 92.109375 212.671875 91.976562 212.929688 C 91.84375 213.183594 91.683594 213.4375 91.527344 213.71875 C 91.453125 213.863281 91.34375 213.988281 91.257812 214.132812 C 91.160156 214.277344 91.0625 214.414062 90.964844 214.558594 C 90.855469 214.703125 90.746094 214.839844 90.636719 214.984375 C 90.515625 215.128906 90.40625 215.277344 90.285156 215.421875 C 90.164062 215.566406 90.03125 215.714844 89.894531 215.859375 C 89.824219 215.933594 89.761719 216.003906 89.6875 216.078125 C 89.617188 216.152344 89.542969 216.226562 89.46875 216.296875 C 89.324219 216.445312 89.179688 216.589844 89.019531 216.722656 C 88.863281 216.855469 88.703125 217.003906 88.53125 217.136719 C 88.449219 217.210938 88.375 217.28125 88.289062 217.34375 C 88.203125 217.40625 88.121094 217.476562 88.035156 217.539062 C 87.863281 217.671875 87.679688 217.804688 87.5 217.925781 C 86.757812 218.4375 85.953125 218.902344 85.101562 219.300781 C 84.25 219.691406 83.347656 220.019531 82.425781 220.273438 C 81.5 220.519531 80.5625 220.6875 79.625 220.773438 C 78.6875 220.847656 77.765625 220.859375 76.875 220.785156 C 76.65625 220.773438 76.4375 220.738281 76.21875 220.710938 C 76.109375 220.699219 76 220.6875 75.890625 220.675781 C 75.78125 220.664062 75.671875 220.640625 75.574219 220.617188 C 75.367188 220.578125 75.148438 220.542969 74.953125 220.507812 C 74.746094 220.457031 74.550781 220.410156 74.34375 220.359375 C 74.246094 220.335938 74.152344 220.3125 74.054688 220.285156 C 73.957031 220.261719 73.859375 220.226562 73.761719 220.203125 C 73.566406 220.140625 73.382812 220.082031 73.203125 220.03125 C 73.019531 219.972656 72.847656 219.898438 72.667969 219.835938 C 72.496094 219.765625 72.324219 219.703125 72.167969 219.628906 C 72.007812 219.558594 71.851562 219.484375 71.691406 219.410156 C 71.535156 219.339844 71.386719 219.277344 71.253906 219.191406 C 71.109375 219.121094 70.976562 219.035156 70.839844 218.960938 C 70.707031 218.886719 70.574219 218.816406 70.464844 218.742188 C 70.21875 218.585938 70 218.4375 69.792969 218.304688 C 69.601562 218.160156 69.417969 218.023438 69.257812 217.890625 C 69.175781 217.832031 69.101562 217.769531 69.027344 217.707031 C 68.953125 217.648438 68.894531 217.585938 68.832031 217.539062 C 68.710938 217.429688 68.613281 217.34375 68.542969 217.269531 C 68.382812 217.125 68.296875 217.039062 68.296875 217.039062 C 67.773438 216.527344 67.761719 215.703125 68.273438 215.179688 C 68.636719 214.8125 69.160156 214.691406 69.613281 214.839844 L 69.746094 214.875 C 69.746094 214.875 69.84375 214.898438 70.011719 214.960938 C 70.183594 215.007812 70.425781 215.117188 70.753906 215.203125 C 70.914062 215.25 71.085938 215.300781 71.277344 215.359375 C 71.472656 215.410156 71.679688 215.46875 71.886719 215.519531 C 72.105469 215.566406 72.335938 215.617188 72.582031 215.675781 C 72.824219 215.726562 73.078125 215.773438 73.347656 215.824219 C 73.617188 215.859375 73.894531 215.910156 74.1875 215.933594 C 74.480469 215.945312 74.769531 216.003906 75.074219 216.003906 C 75.683594 216.054688 76.328125 216.042969 76.996094 216.03125 C 77.667969 215.992188 78.335938 215.933594 79.03125 215.824219 C 79.710938 215.714844 80.40625 215.554688 81.085938 215.375 C 81.769531 215.179688 82.425781 214.949219 83.070312 214.691406 C 83.703125 214.425781 84.324219 214.132812 84.90625 213.816406 C 85.054688 213.742188 85.1875 213.644531 85.332031 213.574219 C 85.40625 213.535156 85.480469 213.488281 85.539062 213.453125 C 85.613281 213.402344 85.671875 213.367188 85.746094 213.328125 C 85.878906 213.246094 86.015625 213.160156 86.148438 213.074219 C 86.28125 212.988281 86.402344 212.890625 86.523438 212.808594 C 86.78125 212.648438 87.011719 212.453125 87.242188 212.285156 C 87.472656 212.113281 87.679688 211.929688 87.898438 211.761719 C 88.09375 211.578125 88.300781 211.421875 88.484375 211.25 C 88.667969 211.078125 88.835938 210.921875 88.996094 210.761719 C 89.152344 210.605469 89.300781 210.449219 89.433594 210.3125 C 89.566406 210.179688 89.675781 210.058594 89.785156 209.9375 C 89.835938 209.875 89.894531 209.828125 89.945312 209.777344 C 89.992188 209.730469 90.042969 209.65625 90.089844 209.609375 C 90.175781 209.5 90.261719 209.402344 90.320312 209.328125 C 90.457031 209.183594 90.515625 209.097656 90.515625 209.097656 C 91.027344 208.5 91.914062 208.429688 92.523438 208.9375 C 92.925781 209.339844 93.082031 209.898438 92.949219 210.398438 Z M 92.949219 210.398438 " fill-opacity="1" fill-rule="nonzero"/></svg>